<?xml version="1.0" encoding="UTF-8"?>
<svg width="1421.5" height="397.45" version="1.1" viewBox="0 0 1421.5 397.45" xmlns="http://www.w3.org/2000/svg" xmlns:cc="http://creativecommons.org/ns#" xmlns:dc="http://purl.org/dc/elements/1.1/" xmlns:rdf="http://www.w3.org/1999/02/22-rdf-syntax-ns#">
 <metadata>
  <rdf:RDF>
   <cc:Work rdf:about="">
    <dc:format>image/svg+xml</dc:format>
    <dc:type rdf:resource="http://purl.org/dc/dcmitype/StillImage"/>
    <dc:title/>
   </cc:Work>
  </rdf:RDF>
 </metadata>
 <g transform="translate(0 -602.55)">
  <path d="m303.49 705.99c-22.656 0-43.385 8.1771-59.375 21.771v-18.594h-26.875v180.94h26.875v-121.15c10.729-21.979 33.281-37.083 59.375-37.083 0.26 0 0.521 0.05 0.833 0.05v-25.885c-0.312 0-0.573-0.05-0.833-0.05z" fill="#ca0f07"/>
  <path d="m410.52 866.88c-37.083 0-67.135-30.104-67.135-67.188s30.052-67.135 67.135-67.135v-26.562c-51.667 0-93.542 41.875-93.542 93.542 0 51.719 41.875 93.594 93.542 93.594z" fill="#ca0f07"/>
  <path d="m1062.3 890.11v-157.24h-20.885v-23.646h20.885v-47.448h26.979v47.448h48.177v23.646h-48.177v157.24z"/>
  <path d="m972.03 890.11v-113.75c0-13.542-3.3855-24.167-10.052-31.979-6.6667-7.7604-16.042-11.667-28.177-11.667-7.8124 0-18.229 1.0418-26.094 5.573-7.8646 4.5833-14.844 8.4374-19.948 17.24v134.58h-27.083v-251.61h27.083v90.312c4.3229-6.6667 11.25-12.24 20.781-16.719 9.5313-4.427 19.427-6.6666 29.583-6.6666 19.219 0 34.271 6.302 45.156 18.958 10.938 12.656 16.406 29.896 16.406 51.823v113.91z"/>
  <path d="m605.68 890.11-0.107-180.89h26.042v180.89z"/>
  <path d="m816.56 705.84-31.667 16.875c-11.927-10.365-27.448-16.667-44.479-16.667-37.5 0-67.917 30.417-67.917 67.865 0 31.614 21.562 58.073 50.781 65.677v36.458s18.073 0.05 18.333 0.05c27.188-0.104 49.323 21.875 49.427 49.062 0.05 27.188-21.927 49.323-49.114 49.427-7.3438 0-14.271-1.6145-20.573-4.4791v26.979c6.5626 1.875 13.49 2.9167 20.677 2.9167 41.25-0.104 74.531-33.646 74.427-74.896-0.107-39.062-30.208-70.938-68.385-74.167v-9.5833c33.854-3.8021 60.208-32.5 60.208-67.448 0-11.771-3.0208-22.865-8.3333-32.552l16.615-8.2813v-27.24m-76.146 111.72c-24.115 0-43.646-19.531-43.646-43.646 0-24.063 19.531-43.542 43.646-43.542 24.062 0 43.594 19.479 43.594 43.542 0 24.114-19.531 43.646-43.594 43.646z"/>
  <path d="m106.3 638.49h-24.271l-82.031 251.61h26.302l16.719-52.448h70.885l23.958-24.01h-87.187l43.542-136.56 43.646 136.61 24.219 76.406h26.302z" fill="#ca0f07"/>
  <path d="m529.53 764.17s-18.646-13.75-18.698-13.75c-12.396-9.2188-20.26-15.99-24.01-20.573-3.9583-4.8437-6.7187-10.417-8.1771-16.562-1.5104-6.198-1.6146-12.812-0.26-19.688 2.1875-11.302 7.7084-20 16.458-25.833 8.6979-5.8333 19.479-7.5521 31.979-5.1562 5.625 1.0937 11.458 3.0729 17.396 5.7291v-25c-4.1146-1.25-8.6459-2.3958-13.854-3.3854-19.844-3.8021-37.344-1.0416-52.135 8.2292-14.896 9.3229-23.854 22.604-27.292 40.573-2.8646 14.74-2.0833 28.073 2.3437 39.74 4.323 11.615 14.167 23.021 29.115 33.854l18.385 13.386c17.188 12.604 27.188 23.073 30.573 31.927 3.3333 8.6979 4.1145 17.708 2.3437 26.771-2.3437 12.292-8.8021 21.719-19.167 27.969-10.208 6.1979-22.604 7.9167-36.823 5.1563-6.25-1.1979-12.969-3.5938-20-6.9792v27.656c3.3855 0.937 6.8229 1.8229 10.365 2.5521 24.427 4.6874 45.417 2.1354 62.24-7.6042 16.979-9.7917 26.927-23.333 30.417-41.354 3.2291-16.615 2.552-31.146-1.9271-43.125-4.4792-11.927-14.323-23.49-29.271-34.531z"/>
  <path d="m1199 919.27 15.833 15.833c39.479-18.438 71.406-50.417 89.583-90.052l-19.479-7.4479c-17.344 36.875-48.073 66.198-85.938 81.667z" fill="#ca0f07"/>
  <path d="m1216.1 602.55-15.729 15.729c37.448 15.677 67.708 44.948 84.792 81.614l19.479-7.4479c-17.969-39.427-49.427-71.354-88.542-89.896z" fill="#ca0f07"/>
  <path d="m1421.5 647.61-284.17 108.96v24.427l284.17 109.01v-22.344l-109.48-41.979c5.8855-17.969 9.0625-37.188 9.0625-57.135 0-19.792-3.125-38.854-8.9062-56.719l109.32-41.927v-22.292m-121.2 120.94c0 17.344-2.7083 34.01-7.7604 49.688l-128.85-49.427 129.01-49.479c4.948 15.521 7.6041 32.031 7.6041 49.219z"/>
 </g>
</svg>
